<svg xmlns="http://www.w3.org/2000/svg" width="18.56" height="18.56" viewBox="0 0 18.56 18.56">
  <path id="category" d="M7.975,0H.725A.725.725,0,0,0,0,.725v7.25A.725.725,0,0,0,.725,8.7h7.25A.725.725,0,0,0,8.7,7.975V.725A.725.725,0,0,0,7.975,0ZM1.45,1.45v0h0ZM18.112,9.915a.725.725,0,0,0-.79.157l-7.25,7.25a.725.725,0,0,0,.513,1.238h7.25a.725.725,0,0,0,.725-.725v-7.25a.725.725,0,0,0-.447-.67Zm-1,7.195h0ZM14.21,8.7A4.35,4.35,0,1,0,9.86,4.35,4.355,4.355,0,0,0,14.21,8.7Zm0-7.25a2.9,2.9,0,1,1-2.9,2.9A2.9,2.9,0,0,1,14.21,1.45ZM8.487,11.1,5.375,14.21l3.112,3.112a.725.725,0,1,1-1.025,1.025L4.35,15.235,1.238,18.348A.725.725,0,0,1,.212,17.322L3.325,14.21.212,11.1a.725.725,0,1,1,1.025-1.025L4.35,13.185l3.112-3.112A.725.725,0,1,1,8.487,11.1Zm0,0" transform="translate(0)" fill="#7732ff"/>
</svg>
