<svg xmlns="http://www.w3.org/2000/svg" width="35" height="33" viewBox="0 0 35 33">
  <g id="Group_23" data-name="Group 23" transform="translate(-31 -320)">
    <rect id="Rectangle_58" data-name="Rectangle 58" width="35" height="33" rx="8" transform="translate(31 320)" fill="#e7ddfb"/>
    <path id="Icon_awesome-user-edit" data-name="Icon awesome-user-edit" d="M7.7,9a4.451,4.451,0,0,0,4.4-4.5A4.451,4.451,0,0,0,7.7,0,4.451,4.451,0,0,0,3.3,4.5,4.451,4.451,0,0,0,7.7,9Zm3.08,1.125h-.574a5.864,5.864,0,0,1-5.012,0H4.62A4.675,4.675,0,0,0,0,14.85v1.462A1.67,1.67,0,0,0,1.65,18H11.1a1.724,1.724,0,0,1-.089-.749l.234-2.141.041-.39.272-.278,2.657-2.718a4.531,4.531,0,0,0-3.434-1.6Zm1.557,5.108L12.1,17.377a.553.553,0,0,0,.605.619l2.094-.239,4.74-4.848-2.465-2.521-4.74,4.844Zm9.423-5.78-1.3-1.332a.811.811,0,0,0-1.162,0L18,9.45l-.141.144,2.468,2.521,1.437-1.469a.86.86,0,0,0,0-1.192Z" transform="translate(38 328)" fill="#a678ff"/>
  </g>
</svg>
